<?xml version="1.0" encoding="utf-8"?>
<!-- Generator: Adobe Illustrator 23.0.1, SVG Export Plug-In . SVG Version: 6.00 Build 0)  -->
<svg version="1.1" id="Layer_2" xmlns="http://www.w3.org/2000/svg" xmlns:xlink="http://www.w3.org/1999/xlink" x="0px" y="0px"
	 viewBox="0 0 1920 1080" style="enable-background:new 0 0 1920 1080;" xml:space="preserve">
<style type="text/css">
	.st0{fill:#FFFFFF;}
</style>
<path class="st0" d="M1260,410"/>
<polygon points="1261,410 1242,429 1052,429 960,521 868,429 678,429 659,410 876,410 960,494 1044,410 "/>
<polygon points="925,410 952,410 960,418 968,410 995,410 960,445 "/>
<polygon points="1206,465 1187,484 1073,484 1025,532 1061,568 1062,569 960,670 960,643 1034,569 998,532 1065,465 "/>
<polygon points="1061,542 1074,555 1075,556 1092,539 1132,539 1152,519 1084,519 "/>
<polygon points="856,542 843,555 842,556 825,539 785,539 765,519 833,519 "/>
<polygon points="714,465 733,484 847,484 895,532 859,568 858,569 960,670 960,643 886,569 922,532 855,465 "/>
<polygon points="960,597 960,570 985,545 998.5,558.5 "/>
<polygon points="960,597 960,570 935,545 921.5,558.5 "/>
</svg>
